<svg width="60" height="60" viewBox="0 0 60 60" fill="none" xmlns="http://www.w3.org/2000/svg">
<g clip-path="url(#clip0_196_125)">
<path d="M10.025 47.3216L3.01465 48.6428V11.1416L10.025 12.4653V47.3216Z" fill="#F68536"/>
<path d="M18.7721 49.535L10.0254 51.5882V8.24748L18.7721 10.2981V49.535ZM29.9923 51.8092L18.7721 55.201V4.63471L29.9923 8.0249V51.8092ZM59.9932 47.4346L29.9923 59.825V0L59.9932 12.3904V47.4346Z" fill="#F68536"/>
<path d="M24.0115 2.47026L29.9918 0V59.825L24.0115 57.3556V2.47026ZM14.1422 6.54581L18.7717 4.63394V55.1911L14.1422 53.2792V6.54581ZM6.33723 9.76974L10.025 8.24671V51.5783L6.33723 50.0543V9.76974ZM3.01457 11.1416L0.00683594 12.3838V47.442L3.01457 48.6834V11.1416Z" fill="#9D5025"/>
</g>
<defs>
<clipPath id="clip0_196_125">
<rect width="60" height="60" fill="white"/>
</clipPath>
</defs>
</svg>
